<svg width="20" height="20" viewBox="0 0 20 20" fill="none" xmlns="http://www.w3.org/2000/svg">
<path d="M7.5 5C7.5 6.38071 8.61929 7.5 10 7.5C11.3807 7.5 12.5 6.38071 12.5 5C12.5 3.61929 11.3807 2.5 10 2.5C8.61929 2.5 7.5 3.61929 7.5 5Z" stroke="black" stroke-linecap="round" stroke-linejoin="round"/>
<path d="M5.00008 12.5L5.00012 9.99998L10 9.99998M15 12.5L15 9.99997L10 9.99998M10 7.49998L10 9.99998" stroke="black" stroke-linecap="round" stroke-linejoin="round"/>
<path d="M5 12.7778L8.33333 15L5 17.2222L1.66667 15L5 12.7778Z" stroke="black" stroke-linejoin="round"/>
<path d="M15 12.7778L18.3333 15L15 17.2222L11.6667 15L15 12.7778Z" stroke="black" stroke-linejoin="round"/>
</svg>
