<svg width="20" height="20" viewBox="0 0 20 20" fill="none" xmlns="http://www.w3.org/2000/svg">
<path d="M5 7.49999V1.66666H15V7.49999" stroke="black" stroke-linecap="round" stroke-linejoin="round"/>
<path d="M4.99984 15H3.33317C2.89114 15 2.46722 14.8244 2.15466 14.5118C1.8421 14.1993 1.6665 13.7754 1.6665 13.3333V9.16667C1.6665 8.72464 1.8421 8.30072 2.15466 7.98816C2.46722 7.6756 2.89114 7.5 3.33317 7.5H16.6665C17.1085 7.5 17.5325 7.6756 17.845 7.98816C18.1576 8.30072 18.3332 8.72464 18.3332 9.16667V13.3333C18.3332 13.7754 18.1576 14.1993 17.845 14.5118C17.5325 14.8244 17.1085 15 16.6665 15H14.9998" stroke="black" stroke-linecap="round" stroke-linejoin="round"/>
<path d="M15 11.6667H5V18.3333H15V11.6667Z" stroke="black" stroke-linecap="round" stroke-linejoin="round"/>
</svg>
